PathFileType  4	(X/Y/Z) C:\Users\antoi\Documents\MyRepositories\mobilecap\ResultsAnalysis
DataRate	CameraRate	NumFrames	NumMarkers	Units	OrigDataRate	OrigDataStartFrame	OrigNumFrames
100.0	100.0	7	51	mm	100.0	496	1321
Frame#	Time	r_knee			r_shank_antsup			r_ankle			r_calc			r_5meta			r_toe			L_knee			L_shank_antsup			L_ankle			L_calc			L_5meta			L_toe			r_sh2			r_sh3			r_sh4			L_sh2			L_sh3			r_thigh1			r_thigh2			r_thigh3			r_thigh4			r_thigh5			L_thigh1			L_thigh2			L_thigh3			L_thigh4			r.ASIS			r.PSIS			L.ASIS			L.PSIS			C7			R_Shoulder			L_Shoulder			R_Sternum			L_Sternum			R_humerus			R_elbow_med			R_elbow_lat			R_forearm			R_wrist_radius			R_wrist_ulna			L_humerus			L_elbow_med			L_elbow_lat			L_forearm			L_wrist_radius			L_wrist_ulna			R_HJC			L_HJC			R_HJC_reg			L_HJC_reg			
		X1	Y1	Z1	X2	Y2	Z2	X3	Y3	Z3	X4	Y4	Z4	X5	Y5	Z5	X6	Y6	Z6	X7	Y7	Z7	X8	Y8	Z8	X9	Y9	Z9	X10	Y10	Z10	X11	Y11	Z11	X12	Y12	Z12	X13	Y13	Z13	X14	Y14	Z14	X15	Y15	Z15	X16	Y16	Z16	X17	Y17	Z17	X18	Y18	Z18	X19	Y19	Z19	X20	Y20	Z20	X21	Y21	Z21	X22	Y22	Z22	X23	Y23	Z23	X24	Y24	Z24	X25	Y25	Z25	X26	Y26	Z26	X27	Y27	Z27	X28	Y28	Z28	X29	Y29	Z29	X30	Y30	Z30	X31	Y31	Z31	X32	Y32	Z32	X33	Y33	Z33	X34	Y34	Z34	X35	Y35	Z35	X36	Y36	Z36	X37	Y37	Z37	X38	Y38	Z38	X39	Y39	Z39	X40	Y40	Z40	X41	Y41	Z41	X42	Y42	Z42	X43	Y43	Z43	X44	Y44	Z44	X45	Y45	Z45	X46	Y46	Z46	X47	Y47	Z47	X48	Y48	Z48	X49	Y49	Z49	X50	Y50	Z50	X51	Y51	Z51	

496	4.95000000	-261.10194	470.38848	-398.53716	-223.73643	409.63636	-400.22152	-282.49623	80.58943	-425.31246	-335.52746	51.83238	-472.57928	-175.30841	42.77702	-398.42891	-137.64516	64.86162	-449.82122	-245.99465	475.43554	-731.99352	-209.88942	391.63659	-743.55796	-280.61231	95.32095	-795.64490	-336.07685	51.97355	-751.84488	-179.80727	44.66197	-830.75527	-129.24282	66.03078	-779.45648	-240.28047	297.70355	-395.67548	-295.25663	420.45017	-374.54274	-319.24707	305.88949	-375.62884	-291.93503	419.13860	-767.19529	-307.83012	300.26295	-794.60714	-238.70212	723.52401	-340.56367	-226.11606	612.17827	-360.55062	-333.80904	600.84281	-385.14250	-349.80736	712.76412	-358.88486	-286.26702	583.90358	-363.67423	-232.34300	759.91462	-734.56226	-210.00539	622.19848	-735.59055	-342.61914	743.47897	-723.53419	-319.60719	606.35178	-707.77013	-202.31394	926.12839	-411.93257	-401.55051	966.61396	-497.14162	-187.63573	927.86968	-630.31728	-392.64985	966.11184	-578.29974	-313.73918	1399.17123	-498.91896	-251.58145	1368.45097	-356.33940	-247.84466	1373.01364	-640.01031	-184.48963	1345.30272	-477.08864	-185.84275	1342.35212	-496.29079	-186.80288	1279.47525	-301.37651	-125.27498	1068.75905	-312.54724	-99.93051	1099.98283	-255.25070	-15.96812	1143.55218	-271.51201	112.33163	1168.20293	-327.07653	124.55893	1137.03961	-307.93614	-197.79560	1287.94327	-709.34430	-107.45530	1081.20406	-700.99039	-97.15289	1119.69367	-758.87932	6.33047	1147.23164	-744.71198	122.96801	1165.65059	-697.15051	131.69756	1129.76976	-713.73157	-286.48205	843.00128	-423.11934	-271.92962	846.72839	-630.08231	-276.41905	863.87350	-449.65434	-260.67142	862.98306	-593.25470	
497	4.96000000	-262.67718	470.63810	-398.47408	-225.51258	409.91756	-400.22142	-282.47637	80.57026	-425.36535	-335.51294	51.83475	-472.57906	-175.24231	42.75976	-398.42344	-137.57110	64.69972	-449.91064	-247.18353	475.56859	-731.40371	-210.96685	392.06751	-742.92141	-280.59694	95.34728	-795.43117	-336.02689	52.01394	-751.78875	-179.75934	44.60395	-830.74188	-129.15951	65.89705	-779.49917	-241.69293	297.98662	-395.56731	-297.28017	420.54133	-374.63450	-320.59161	305.84396	-375.80167	-293.13124	419.23792	-766.49808	-308.73583	300.30783	-794.03095	-237.43940	723.56726	-340.55446	-226.01577	612.17683	-360.65220	-333.85129	601.97708	-385.17185	-348.68224	713.82602	-358.44430	-286.31968	584.40446	-363.96422	-231.42335	760.04637	-734.64224	-210.06013	622.12892	-735.25547	-341.81920	744.19523	-722.82896	-319.53753	607.03006	-707.16829	-200.25264	927.00261	-411.74059	-399.95052	965.74332	-496.92575	-185.97898	928.60139	-630.67725	-391.33239	965.15639	-578.19432	-315.59467	1399.26493	-499.22170	-253.56446	1368.63434	-356.43767	-249.73644	1373.31447	-640.41417	-186.73684	1345.60265	-477.32928	-187.43735	1342.93973	-496.55796	-188.87370	1279.41050	-301.30545	-127.34060	1068.70489	-312.94564	-102.35256	1099.82192	-255.34003	-18.14134	1143.11326	-271.09971	110.45490	1167.52631	-326.02511	122.47486	1136.17941	-307.04078	-199.52429	1288.06444	-709.64982	-109.83530	1080.03852	-702.29129	-99.08498	1119.56315	-758.97859	4.71853	1147.08744	-745.19498	121.18946	1165.07407	-697.59241	129.73394	1129.17206	-714.34692	-283.76528	843.17862	-422.95595	-269.60533	846.74106	-629.94899	-273.86005	864.02572	-449.15849	-258.59019	862.98655	-593.15566	
498	4.97000000	-264.25446	470.99314	-398.20890	-227.32553	410.26918	-400.03454	-282.38311	80.61605	-425.37769	-335.47724	51.86982	-472.57305	-175.18916	42.67104	-398.39924	-137.36629	64.58363	-449.99324	-248.20008	475.61564	-730.74688	-211.92395	392.24590	-742.05066	-280.53948	95.43570	-795.36805	-335.92519	52.07721	-751.66758	-179.69617	44.50222	-830.70289	-129.04462	65.69175	-779.53764	-243.02381	298.35538	-395.33155	-299.29569	420.68214	-374.78479	-321.94314	305.83363	-375.93853	-294.25245	419.38446	-765.80886	-309.51770	300.33341	-793.51260	-236.24474	723.70203	-340.64361	-225.89372	612.28272	-360.61772	-333.81394	603.16430	-385.08937	-347.66944	714.82227	-357.95548	-286.32744	584.93823	-364.09627	-230.57855	760.17601	-734.67599	-210.08223	622.08908	-735.11004	-340.98567	744.85770	-722.31484	-319.46251	607.71685	-706.35672	-198.24090	927.76745	-411.64422	-398.47949	964.73766	-496.88871	-184.43690	929.28173	-631.08579	-390.03505	964.24658	-577.96257	-317.38142	1399.30623	-499.44733	-255.46820	1368.72854	-356.61299	-251.55853	1373.53279	-640.92166	-189.21409	1345.53639	-477.45977	-188.94641	1343.37674	-496.59659	-190.91554	1279.28462	-301.27596	-129.30097	1068.56557	-313.07155	-104.61006	1099.61599	-255.51018	-20.18429	1142.59034	-270.64395	108.69535	1166.77443	-324.98948	120.52502	1135.30667	-306.05216	-201.26557	1288.02223	-709.76544	-112.10539	1079.52868	-703.47259	-100.89508	1119.32385	-759.12682	2.77684	1146.59481	-745.23573	119.52448	1164.32729	-698.08870	127.87618	1128.41009	-714.85163	-281.13230	843.24314	-422.90000	-267.38377	846.74570	-629.92174	-271.42302	863.87282	-449.02085	-256.39016	862.99930	-593.35882	
499	4.98000000	-265.80260	471.23806	-398.12340	-229.06859	410.64281	-399.97595	-282.30268	80.65484	-425.37035	-335.42176	51.93119	-472.55009	-175.15901	42.58514	-398.38715	-137.08407	64.54593	-450.00656	-249.15910	475.61757	-730.00813	-212.78268	392.38265	-741.28286	-280.49898	95.52043	-795.33990	-335.80070	52.14577	-751.51607	-179.65894	44.42620	-830.68599	-128.91913	65.52809	-779.56043	-244.28351	298.69290	-395.00565	-301.22777	420.89379	-374.90917	-323.31434	305.81078	-376.15371	-295.20558	419.51815	-765.10287	-310.08029	300.49628	-793.00797	-235.12506	723.90230	-340.68810	-225.78064	612.34510	-360.61675	-333.63086	603.97225	-385.50519	-346.66514	715.77206	-357.61961	-286.39351	585.51297	-364.13387	-229.80569	760.32902	-734.83837	-210.05427	622.05723	-735.08553	-340.13856	745.39910	-721.82139	-319.34708	608.27290	-705.42363	-196.29394	928.33339	-411.74159	-397.08269	963.67293	-496.90331	-182.88664	929.73446	-631.16065	-388.75502	963.33817	-577.77998	-319.07953	1399.18945	-499.68185	-257.30901	1368.69147	-356.82670	-253.33127	1373.63744	-641.39479	-190.78236	1345.79294	-477.46430	-190.38210	1343.71823	-496.76197	-192.87397	1279.06972	-301.33764	-131.27099	1068.34517	-312.99928	-106.73117	1099.33033	-255.61047	-22.13300	1142.02937	-270.20923	107.01564	1165.91081	-324.05485	118.68345	1134.44836	-305.00983	-202.93271	1287.81315	-709.91069	-113.73571	1079.31182	-703.18132	-102.68439	1119.03305	-759.27293	0.73393	1145.90907	-745.19577	117.91944	1163.44517	-698.57065	126.18655	1127.47703	-715.28417	-278.68603	843.17800	-422.83413	-265.23001	846.61716	-629.87636	-269.04994	863.63508	-449.09472	-254.18990	863.03687	-593.41966	
500	4.99000000	-267.27546	471.42248	-398.24404	-230.71015	410.99021	-400.13810	-282.28179	80.63972	-425.36515	-335.36910	51.99365	-472.51707	-175.11264	42.57274	-398.39352	-136.87933	64.46505	-450.01536	-250.03424	475.77376	-729.52322	-213.56801	392.74989	-740.99380	-280.50867	95.48357	-795.15216	-335.72980	52.17044	-751.41553	-179.64279	44.42412	-830.74958	-128.83011	65.43996	-779.61182	-245.52351	298.99305	-394.75193	-302.84159	421.04692	-375.27767	-324.63518	305.84195	-376.32893	-296.00298	419.61054	-764.48712	-310.59805	300.73718	-792.33480	-234.02820	724.09822	-340.62459	-225.67994	612.30283	-360.72508	-333.43612	604.40950	-386.38806	-345.60116	716.73481	-357.42770	-286.54000	586.12416	-364.12697	-229.09953	760.44553	-735.11792	-209.99125	622.02616	-735.09593	-339.36327	745.80795	-721.39893	-319.15106	608.78402	-704.69003	-194.41630	928.82083	-411.91166	-395.68959	962.59259	-496.90536	-181.35470	930.06924	-631.13547	-387.57035	962.16440	-578.05483	-320.69685	1398.95309	-500.01064	-259.10702	1368.59995	-356.91852	-255.03414	1373.58121	-641.74468	-191.43369	1346.56249	-477.65917	-191.79624	1344.01230	-497.20535	-194.70684	1278.76081	-301.44836	-133.23535	1068.03863	-313.04101	-108.77125	1098.98079	-255.61847	-24.01290	1141.40256	-269.88994	105.38584	1164.97864	-323.20496	116.89724	1133.56822	-304.02508	-204.51054	1287.48287	-710.23426	-115.18022	1078.81530	-702.59774	-104.42835	1118.63140	-759.31383	-0.95173	1145.26968	-745.49106	116.35737	1162.48780	-699.03572	124.59863	1126.47633	-715.70153	-276.34243	843.06849	-422.80285	-263.04123	846.31891	-629.85830	-266.69367	863.69310	-448.89146	-252.26167	862.93351	-593.11378	
501	5.00000000	-268.73479	471.61382	-398.44586	-232.34195	411.33153	-400.25798	-282.25988	80.64784	-425.33323	-335.35196	52.03486	-472.48995	-175.05724	42.55577	-398.38626	-136.76947	64.27621	-450.06976	-250.70777	476.08908	-729.43769	-214.26315	393.22531	-741.01303	-280.53906	95.35712	-794.85121	-335.72956	52.17462	-751.39680	-179.62874	44.44059	-830.86168	-128.79981	65.36366	-779.72937	-246.71159	299.34330	-394.69897	-304.33959	421.13150	-375.77796	-325.98141	306.01721	-376.41990	-296.74732	419.74942	-763.95512	-311.19150	300.96912	-791.60273	-232.94357	724.23591	-340.50945	-225.60959	612.26334	-360.84733	-333.39842	604.95402	-387.06156	-344.52908	717.71673	-357.25714	-286.67466	586.72245	-364.07123	-228.38066	760.47260	-735.29432	-209.87438	622.00691	-735.09618	-338.58190	746.22312	-721.23582	-318.90377	609.34153	-704.14564	-192.57446	929.37713	-412.07139	-394.35325	961.53327	-496.89312	-180.10281	930.82926	-631.83010	-386.43904	960.84436	-578.60272	-322.23186	1398.75138	-500.33805	-260.78317	1368.56094	-356.87020	-256.59193	1373.43650	-642.10731	-192.34078	1347.07963	-478.03231	-193.14223	1344.22604	-497.54033	-196.43787	1278.39852	-301.50620	-135.10272	1067.60638	-313.26251	-110.75150	1098.59266	-255.61972	-25.83531	1140.74432	-269.60686	103.78420	1164.03161	-322.37932	115.14041	1132.61286	-303.09137	-206.05420	1287.08753	-710.68721	-117.03117	1078.54265	-703.15151	-106.00578	1118.08991	-759.34638	-2.31559	1144.61481	-745.96454	114.87113	1161.49268	-699.48919	123.02180	1125.45489	-716.06569	-273.85024	842.96600	-423.14053	-260.91492	846.26598	-630.21719	-264.52906	863.97497	-448.65037	-250.52296	862.75661	-593.24587	
502	5.01000000	-270.21473	471.86457	-398.48486	-234.07962	411.72052	-400.11297	-282.21644	80.69359	-425.30211	-335.36104	52.06960	-472.47643	-175.02380	42.47955	-398.37529	-136.65445	64.05782	-450.11257	-251.21043	476.34501	-729.37497	-214.86127	393.50399	-740.88357	-280.53140	95.30913	-794.62082	-335.70957	52.22858	-751.41180	-179.62814	44.38674	-830.93578	-128.77040	65.26456	-779.84467	-247.85713	299.65880	-394.77620	-306.16369	421.32164	-375.92992	-327.38714	306.17174	-376.54936	-297.47443	419.94047	-763.42091	-311.74332	301.26443	-791.11813	-231.88913	724.23416	-340.48883	-225.62585	612.31341	-360.87809	-333.44674	605.77750	-387.26338	-343.52366	718.64399	-357.10548	-286.78457	587.23688	-364.07877	-227.54506	760.49649	-735.43806	-209.65051	622.00904	-735.05532	-337.68220	746.69002	-721.09316	-318.59928	609.86177	-703.65478	-190.76471	929.96973	-412.23391	-393.08977	960.51004	-496.82810	-179.17309	932.05236	-633.10184	-385.29318	959.87737	-578.57403	-323.66119	1398.56920	-500.60660	-262.26355	1368.46630	-356.93365	-258.00005	1373.29802	-642.56485	-193.90969	1346.86427	-478.40112	-194.32316	1344.31084	-497.71876	-198.05707	1277.99218	-301.55414	-136.85607	1067.07073	-313.51623	-112.66835	1098.12440	-255.71634	-27.60749	1140.10712	-269.22732	102.21226	1163.05132	-321.55153	113.41789	1131.54735	-302.16820	-207.55584	1286.67258	-711.16336	-119.03886	1078.63248	-704.17243	-107.47092	1117.50014	-759.61359	-3.83224	1143.73262	-746.13711	113.46971	1160.44812	-699.88913	121.44721	1124.37168	-716.38038	-271.22117	842.85280	-423.73430	-259.06178	846.67992	-630.84804	-262.54693	863.93819	-448.89333	-248.68846	862.81835	-594.20998	
